<svg width="128" height="26" viewBox="0 0 128 26" fill="none" xmlns="http://www.w3.org/2000/svg">
<path d="M7.40308 9.13037C7.76636 9.13037 8.06812 9.15674 8.30835 9.20947L8.1062 11.7231C7.8894 11.6646 7.62573 11.6353 7.31519 11.6353C6.45972 11.6353 5.79175 11.855 5.31128 12.2944C4.83667 12.7339 4.59937 13.3491 4.59937 14.1401V19.1411H1.9187V9.31494H3.94897L4.34448 10.9673H4.47632C4.78101 10.4165 5.19116 9.97412 5.70679 9.64014C6.22827 9.30029 6.7937 9.13037 7.40308 9.13037ZM14.1619 11.0376C13.5935 11.0376 13.1482 11.2192 12.8259 11.5825C12.5037 11.9399 12.3191 12.4497 12.2722 13.1118H16.0339C16.0222 12.4497 15.8494 11.9399 15.5154 11.5825C15.1814 11.2192 14.7302 11.0376 14.1619 11.0376ZM14.5398 19.3169C12.9578 19.3169 11.7214 18.8804 10.8308 18.0073C9.94019 17.1343 9.49487 15.8979 9.49487 14.2983C9.49487 12.6519 9.90503 11.3804 10.7253 10.4839C11.5515 9.58154 12.6912 9.13037 14.1443 9.13037C15.533 9.13037 16.614 9.52588 17.3875 10.3169C18.1609 11.1079 18.5476 12.2007 18.5476 13.5952V14.896H12.2107C12.24 15.6577 12.4656 16.2524 12.8875 16.6802C13.3093 17.1079 13.9011 17.3218 14.6628 17.3218C15.2546 17.3218 15.8142 17.2603 16.3416 17.1372C16.8689 17.0142 17.4197 16.8179 17.9939 16.5483V18.6226C17.5251 18.8569 17.0242 19.0298 16.491 19.1411C15.9578 19.2583 15.3074 19.3169 14.5398 19.3169ZM26.9675 19.1411L26.449 17.8052H26.3787C25.9275 18.3735 25.4617 18.769 24.9812 18.9917C24.5066 19.2085 23.8855 19.3169 23.1179 19.3169C22.1746 19.3169 21.4304 19.0474 20.8855 18.5083C20.3464 17.9692 20.0769 17.2017 20.0769 16.2056C20.0769 15.1626 20.4402 14.395 21.1667 13.9028C21.8992 13.4048 23.0007 13.1294 24.4714 13.0767L26.1765 13.0239V12.5933C26.1765 11.5972 25.6667 11.0991 24.6472 11.0991C23.8621 11.0991 22.9392 11.3364 21.8787 11.811L20.991 10.0005C22.1218 9.40869 23.3757 9.11279 24.7527 9.11279C26.071 9.11279 27.0818 9.3999 27.7849 9.97412C28.488 10.5483 28.8396 11.4214 28.8396 12.5933V19.1411H26.9675ZM26.1765 14.5884L25.1394 14.6235C24.3601 14.647 23.78 14.7876 23.3992 15.0454C23.0183 15.3032 22.8279 15.6958 22.8279 16.2231C22.8279 16.979 23.2615 17.3569 24.1287 17.3569C24.7498 17.3569 25.2449 17.1782 25.614 16.8208C25.989 16.4634 26.1765 15.9888 26.1765 15.397V14.5884ZM34.7195 19.3169C33.5652 19.3169 32.657 18.8687 31.9949 17.9722C31.3386 17.0757 31.0105 15.8335 31.0105 14.2456C31.0105 12.6343 31.3445 11.3804 32.0125 10.4839C32.6863 9.58154 33.6121 9.13037 34.7898 9.13037C36.0261 9.13037 36.9695 9.61084 37.6199 10.5718H37.7078C37.573 9.83936 37.5056 9.18604 37.5056 8.61182V5.46533H40.1951V19.1411H38.1384L37.6199 17.8667H37.5056C36.8962 18.8335 35.9675 19.3169 34.7195 19.3169ZM35.6599 17.1812C36.3455 17.1812 36.8464 16.9819 37.1628 16.5835C37.4851 16.1851 37.6609 15.5083 37.6902 14.5532V14.2632C37.6902 13.2085 37.5261 12.4526 37.198 11.9956C36.8757 11.5386 36.3484 11.3101 35.616 11.3101C35.0183 11.3101 34.5525 11.5649 34.2185 12.0747C33.8904 12.5786 33.7263 13.314 33.7263 14.2808C33.7263 15.2476 33.8933 15.9741 34.2273 16.4604C34.5613 16.9409 35.0388 17.1812 35.6599 17.1812ZM56.4724 19.1411H53.7917V13.4019C53.7917 12.6929 53.6716 12.1626 53.4314 11.811C53.197 11.4536 52.825 11.2749 52.3152 11.2749C51.6296 11.2749 51.1316 11.5269 50.821 12.0308C50.5105 12.5347 50.3552 13.3638 50.3552 14.5181V19.1411H47.6746V9.31494H49.7224L50.0828 10.5718H50.2322C50.4958 10.1206 50.8767 9.76904 51.3748 9.51709C51.8728 9.25928 52.4441 9.13037 53.0886 9.13037C54.5593 9.13037 55.5554 9.61084 56.0769 10.5718H56.3142C56.5779 10.1147 56.9646 9.76025 57.4744 9.5083C57.99 9.25635 58.5701 9.13037 59.2146 9.13037C60.3279 9.13037 61.1687 9.41748 61.7371 9.9917C62.3113 10.5601 62.5984 11.4741 62.5984 12.7339V19.1411H59.9089V13.4019C59.9089 12.6929 59.7888 12.1626 59.5486 11.811C59.3142 11.4536 58.9421 11.2749 58.4324 11.2749C57.7761 11.2749 57.2839 11.5093 56.9558 11.978C56.6335 12.4468 56.4724 13.1909 56.4724 14.2104V19.1411ZM67.4939 14.2104C67.4939 15.1831 67.6521 15.9185 67.9685 16.4165C68.2908 16.9146 68.8123 17.1636 69.533 17.1636C70.2478 17.1636 70.7605 16.9175 71.071 16.4253C71.3875 15.9272 71.5457 15.189 71.5457 14.2104C71.5457 13.2378 71.3875 12.5083 71.071 12.022C70.7546 11.5356 70.2361 11.2925 69.5154 11.2925C68.8005 11.2925 68.2849 11.5356 67.9685 12.022C67.6521 12.5024 67.4939 13.2319 67.4939 14.2104ZM74.2878 14.2104C74.2878 15.8101 73.866 17.061 73.0222 17.9634C72.1785 18.8657 71.0037 19.3169 69.4978 19.3169C68.5544 19.3169 67.7224 19.1118 67.0017 18.7017C66.281 18.2856 65.7273 17.6909 65.3406 16.9175C64.9539 16.144 64.7605 15.2417 64.7605 14.2104C64.7605 12.605 65.1794 11.3569 66.0173 10.4663C66.8552 9.57568 68.033 9.13037 69.5505 9.13037C70.4939 9.13037 71.3259 9.33545 72.0466 9.74561C72.7673 10.1558 73.321 10.7446 73.7078 11.5122C74.0945 12.2798 74.2878 13.1792 74.2878 14.2104ZM81.9871 9.13037C82.3503 9.13037 82.6521 9.15674 82.8923 9.20947L82.6902 11.7231C82.4734 11.6646 82.2097 11.6353 81.8992 11.6353C81.0437 11.6353 80.3757 11.855 79.8953 12.2944C79.4207 12.7339 79.1833 13.3491 79.1833 14.1401V19.1411H76.5027V9.31494H78.533L78.9285 10.9673H79.0603C79.365 10.4165 79.7751 9.97412 80.2908 9.64014C80.8123 9.30029 81.3777 9.13037 81.9871 9.13037ZM88.7458 11.0376C88.1775 11.0376 87.7322 11.2192 87.4099 11.5825C87.0876 11.9399 86.9031 12.4497 86.8562 13.1118H90.6179C90.6062 12.4497 90.4333 11.9399 90.0994 11.5825C89.7654 11.2192 89.3142 11.0376 88.7458 11.0376ZM89.1238 19.3169C87.5417 19.3169 86.3054 18.8804 85.4148 18.0073C84.5242 17.1343 84.0789 15.8979 84.0789 14.2983C84.0789 12.6519 84.489 11.3804 85.3093 10.4839C86.1355 9.58154 87.2751 9.13037 88.7283 9.13037C90.1169 9.13037 91.198 9.52588 91.9714 10.3169C92.7449 11.1079 93.1316 12.2007 93.1316 13.5952V14.896H86.7947C86.824 15.6577 87.0496 16.2524 87.4714 16.6802C87.8933 17.1079 88.4851 17.3218 89.2468 17.3218C89.8386 17.3218 90.3982 17.2603 90.9255 17.1372C91.4529 17.0142 92.0037 16.8179 92.5779 16.5483V18.6226C92.1091 18.8569 91.6082 19.0298 91.075 19.1411C90.5417 19.2583 89.8914 19.3169 89.1238 19.3169Z" fill="#FBD784"/>
<path d="M119.512 3.14111L118.102 4.55111L123.682 10.1411L103.512 10.1411L103.512 12.1411L123.682 12.1411L118.092 17.7211L119.512 19.1411L127.512 11.1411L119.512 3.14111Z" fill="#FBD784"/>
</svg>
